<?xml version="1.0" encoding="UTF-8" standalone="no"?>
<svg width="42px" height="42px" viewBox="0 0 42 42" version="1.1" xmlns="http://www.w3.org/2000/svg" xmlns:xlink="http://www.w3.org/1999/xlink">
    <!-- Generator: Sketch 39.1 (31720) - http://www.bohemiancoding.com/sketch -->
    <title>connection</title>
    <desc>Created with Sketch.</desc>
    <defs></defs>
    <g id="Welcome" stroke="none" stroke-width="1" fill="none" fill-rule="evenodd" opacity="0.900000036">
        <g id="Desktop-HD" transform="translate(-734.000000, -1358.000000)">
            <g id="parent" transform="translate(179.000000, 919.000000)">
                <g id="text" transform="translate(555.000000, 35.000000)">
                    <g id="features" transform="translate(0.000000, 199.000000)">
                        <g id="f5" transform="translate(0.000000, 205.000000)">
                            <g id="connection">
                                <circle id="Mask" fill="#D84E24" cx="21" cy="21" r="21"></circle>
                                <path d="M23.0238666,41.9037316 C33.0878507,40.941369 41.0788468,32.8759974 41.92573,22.7787415 L29.4747937,10.214505 L26.0495427,15.1172651 L22.0463031,7.04656732 L17.8749698,9.43135607 L20.1873487,15.9752201 L19.3106711,17.2137073 L13.1359943,10.2145049 L10.1012394,14.0522349 L16.1108382,21.3824543 L7.89747554,19.0498178 L7.89747554,22.1397426 L15.1867488,25.3287996 L12.4877523,28.2376983 L10.1012395,27.4041221 L10.1012394,31.8163898 L23.0238666,41.9037316 Z" id="Combined-Shape" fill-opacity="0.250169837" fill="#000000"></path>
                                <g id="Group" transform="translate(19.618060, 18.306230)">
                                    <path d="M12.812925,2.95252836 L0.481464308,2.95252836 C0.261642465,2.95252836 0.0833776693,2.77417592 0.0833776693,2.5541581 C0.0833776693,2.33414029 0.261642465,2.15578785 0.481464308,2.15578785 L12.812925,2.15578785 C13.0329225,2.15578785 13.2111873,2.33414029 13.2111873,2.5541581 C13.2111873,2.77417592 13.0328347,2.95252836 12.812925,2.95252836 L12.812925,2.95252836 Z" id="Shape" fill="#FFFFFF"></path>
                                    <ellipse id="Oval" fill="#83EC46" cx="12.812925" cy="2.5541581" rx="2.52162538" ry="2.52286512"></ellipse>
                                </g>
                                <g id="Group" transform="translate(19.618060, 10.131377)">
                                    <path d="M0.481464308,11.1273814 C0.379724222,11.1273814 0.27780842,11.0885288 0.200053691,11.0107359 C0.0444563758,10.85515 0.0444563758,10.6028722 0.200053691,10.4472863 L8.91965345,1.72339966 C9.0751629,1.56781374 9.32740451,1.56781374 9.4826504,1.72339966 C9.63824771,1.87898557 9.63824771,2.13126329 9.4826504,2.2868492 L0.763050641,11.0107359 C0.685295912,11.0884409 0.58338011,11.1273814 0.481464308,11.1273814 L0.481464308,11.1273814 Z" id="Shape" fill="#FFFFFF"></path>
                                    <ellipse id="Oval" fill="#FEE050" cx="9.20123978" cy="2.00512443" rx="1.9312166" ry="1.93216606"></ellipse>
                                </g>
                                <g id="Group" transform="translate(17.509457, 6.000000)">
                                    <path d="M2.59006711,15.2586708 C2.37024527,15.2586708 2.19198048,15.0803183 2.19198048,14.8603005 L2.19198048,2.52286512 C2.19198048,2.3028473 2.37024527,2.12449486 2.59024283,2.12449486 C2.81024039,2.12449486 2.98850519,2.3028473 2.98850519,2.52286512 L2.98832947,14.8603005 C2.98832947,15.0803183 2.81006467,15.2586708 2.59006711,15.2586708 L2.59006711,15.2586708 Z" id="Shape" fill="#FFFFFF"></path>
                                    <path d="M2.59024283,0 C1.19751068,8.79016452e-05 0.0686174497,1.12953614 0.0686174497,2.52286512 C0.0686174497,3.9161941 1.19759854,5.04573024 2.59006711,5.04573024 C3.98297498,5.04573024 5.1116925,3.9161941 5.1116925,2.52277722 C5.1116925,1.12953614 3.98279927,8.79016452e-05 2.59024283,0 L2.59024283,0 Z" id="Shape" fill="#83EC46"></path>
                                </g>
                                <g id="Group" transform="translate(8.811470, 9.603967)">
                                    <path d="M11.2880537,11.6547033 C11.1863136,11.6547033 11.0843978,11.6158508 11.0066431,11.5380578 L2.28704332,2.81408327 C2.131446,2.65849736 2.131446,2.40621964 2.28704332,2.25063372 C2.44237706,2.09504781 2.69479439,2.09504781 2.85004027,2.25063372 L11.56964,10.9746083 C11.7252373,11.1301942 11.7252373,11.3824719 11.56964,11.5380578 C11.4918853,11.6158508 11.3899695,11.6547033 11.2880537,11.6547033 L11.2880537,11.6547033 Z" id="Shape" fill="#FFFFFF"></path>
                                    <ellipse id="Oval" fill="#FEE050" cx="2.56854179" cy="2.5323585" rx="2.52162538" ry="2.52286512"></ellipse>
                                </g>
                                <g id="Group" transform="translate(6.000000, 19.097345)">
                                    <path d="M14.0995241,2.16132565 L1.76815131,2.16132565 C1.54815375,2.16132565 1.37006467,1.98288531 1.37006467,1.76286749 C1.37006467,1.54284968 1.54815375,1.36449724 1.76815131,1.36449724 L14.0995241,1.36458514 C14.3195217,1.36458514 14.4977865,1.54293758 14.4977865,1.7629554 C14.4977865,1.98297321 14.3195217,2.16132565 14.0995241,2.16132565 L14.0995241,2.16132565 Z" id="Shape" fill="#FFFFFF"></path>
                                    <ellipse id="Oval" fill="#FB7598" cx="1.76815131" cy="1.76277959" rx="1.71754484" ry="1.71838926"></ellipse>
                                </g>
                                <g id="Group" transform="translate(8.811470, 20.415870)">
                                    <path d="M2.56827822,9.56668765 C2.46653813,9.56668765 2.36462233,9.52774722 2.2868676,9.44995427 C2.13127029,9.29436836 2.13127029,9.04209063 2.2868676,8.88650472 L11.0066431,0.162618044 C11.1619768,0.00703213161 11.4143941,0.00703213161 11.56964,0.162618044 C11.7252373,0.318203956 11.7252373,0.570481677 11.56964,0.726067589 L2.84986455,9.44995427 C2.77210982,9.52774722 2.67019402,9.56668765 2.56827822,9.56668765 L2.56827822,9.56668765 Z" id="Shape" fill="#FFFFFF"></path>
                                    <path d="M0.785366687,10.9521055 C1.77017206,11.9373071 3.36673581,11.9374829 4.35136547,10.9521934 C5.33617084,9.96699174 5.33617084,8.36955515 4.35154118,7.38426561 C3.3665601,6.39906397 1.76999634,6.39906397 0.785366687,7.38435351 C-0.199262965,8.36964305 -0.199262965,9.96699174 0.785366687,10.9521055 L0.785366687,10.9521055 Z" id="Shape" fill="#83EC46"></path>
                                </g>
                                <g id="Group" transform="translate(17.509457, 20.415870)">
                                    <path d="M2.59006711,13.1803243 L2.59006711,13.1803243 C2.37006955,13.1803243 2.19180476,13.0019718 2.19180476,12.781954 L2.19198048,0.444342816 C2.19198048,0.224324999 2.37024527,0.0459725604 2.59006711,0.0459725604 L2.59006711,0.0459725604 C2.81006467,0.0459725604 2.98832947,0.224324999 2.98832947,0.444342816 L2.98815375,12.781954 C2.98815375,13.0019718 2.80988896,13.1803243 2.59006711,13.1803243 L2.59006711,13.1803243 Z" id="Shape" fill="#FFFFFF"></path>
                                    <path d="M2.5898914,15.3047312 C3.98279927,15.3045554 5.11151678,14.1751951 5.11151678,12.781954 C5.11151678,11.3885372 3.98253569,10.2590889 2.59006711,10.259001 C1.19733496,10.259001 0.0684417328,11.3885372 0.0684417328,12.781954 C0.0684417328,14.1751951 1.19751068,15.3046433 2.5898914,15.3047312 L2.5898914,15.3047312 Z" id="Shape" fill="#005CB9"></path>
                                </g>
                                <g id="Group" transform="translate(19.618060, 20.415870)">
                                    <path d="M9.20106406,9.56686346 C9.09914826,9.56686346 8.99723246,9.52801093 8.91947773,9.45021797 L0.200053691,0.726243393 C0.0444563758,0.570657481 0.0444563758,0.318379759 0.200053691,0.162793847 C0.355387431,0.00720793491 0.607804759,0.00720793491 0.763050641,0.162793847 L9.4826504,8.88685633 C9.63815985,9.04244224 9.63815985,9.29471996 9.4826504,9.45030587 C9.40489567,9.52792303 9.30289201,9.56686346 9.20106406,9.56686346 L9.20106406,9.56686346 Z" id="Shape" fill="#FFFFFF"></path>
                                    <path d="M10.9841513,10.9524571 C11.968781,9.96699174 11.9689567,8.36981885 10.9841513,7.38461721 C9.99934594,6.39932767 8.40278218,6.39941557 7.41797682,7.38452931 C6.43334716,8.36973095 6.43317145,9.96716755 7.41797682,10.9524571 C8.40278218,11.9375708 9.99934594,11.937395 10.9841513,10.9524571 L10.9841513,10.9524571 Z" id="Shape" fill="#FB7598"></path>
                                </g>
                                <ellipse id="Oval" fill="#005CB9" cx="20.099612" cy="20.8603884" rx="5.28328005" ry="5.28587753"></ellipse>
                            </g>
                        </g>
                    </g>
                </g>
            </g>
        </g>
    </g>
</svg>