<?xml version="1.0" encoding="UTF-8" standalone="no"?>
<svg width="42px" height="42px" viewBox="0 0 42 42" version="1.1" xmlns="http://www.w3.org/2000/svg" xmlns:xlink="http://www.w3.org/1999/xlink">
    <!-- Generator: Sketch 39.1 (31720) - http://www.bohemiancoding.com/sketch -->
    <title>like (1)</title>
    <desc>Created with Sketch.</desc>
    <defs></defs>
    <g id="Welcome" stroke="none" stroke-width="1" fill="none" fill-rule="evenodd" opacity="0.900000036">
        <g id="Desktop-HD" transform="translate(-735.000000, -1205.000000)">
            <g id="parent" transform="translate(179.000000, 919.000000)">
                <g id="text" transform="translate(555.000000, 35.000000)">
                    <g id="features" transform="translate(0.000000, 199.000000)">
                        <g id="f2" transform="translate(1.000000, 52.000000)">
                            <g id="like-(1)">
                                <circle id="Oval" fill="#32373B" cx="21" cy="21" r="21"></circle>
                                <path d="M33.4510909,14.056 L11.9463838,28.3248283 L25.2014141,41.5792929 C34.3111717,39.7294545 41.2782222,31.9825051 41.946404,22.4968687 L33.4510909,14.056 L33.4510909,14.056 Z" id="Shape" fill="#1D2326"></path>
                                <path d="M35,18.447899 C35,14.5819192 31.8659798,11.447899 28,11.447899 C24.1340202,11.447899 21,14.5819192 21,18.447899 C21,14.5819192 17.8659798,11.447899 14,11.447899 C10.1340202,11.447899 7,14.5819192 7,18.447899 C7,27.7812323 21,35 21,35 C21,35 35,27.7325859 35,18.447899 L35,18.447899 Z" id="Shape" fill="#DD1920"></path>
                            </g>
                        </g>
                    </g>
                </g>
            </g>
        </g>
    </g>
</svg>