<?xml version="1.0" encoding="UTF-8" standalone="no"?>
<svg width="42px" height="42px" viewBox="0 0 42 42" version="1.1" xmlns="http://www.w3.org/2000/svg" xmlns:xlink="http://www.w3.org/1999/xlink">
    <!-- Generator: Sketch 39.1 (31720) - http://www.bohemiancoding.com/sketch -->
    <title>statistics</title>
    <desc>Created with Sketch.</desc>
    <defs></defs>
    <g id="Welcome" stroke="none" stroke-width="1" fill="none" fill-rule="evenodd" opacity="0.900000036">
        <g id="Desktop-HD" transform="translate(-735.000000, -1257.000000)">
            <g id="parent" transform="translate(179.000000, 919.000000)">
                <g id="text" transform="translate(555.000000, 35.000000)">
                    <g id="features" transform="translate(0.000000, 199.000000)">
                        <g id="f3" transform="translate(1.000000, 104.000000)">
                            <g id="statistics">
                                <circle id="Oval" fill-opacity="0.990234375" fill="#4C408B" cx="21" cy="21" r="21"></circle>
                                <path d="M41.7495586,24.2495859 L33.8332969,16.3333242 L33.8131992,16.3801641 L26.302418,8.66094141 L18.6666211,16.616168 L16.3333242,16.3333242 L14.0147109,13.6700977 L11.6814141,13.6700977 L5.28355078,20.383125 L12.8668477,27.9664219 L8.16670312,32.6665664 L17.1457617,41.645625 C18.3952617,41.8775273 19.6833164,42 21,42 C31.4927812,42 40.1875195,34.3044023 41.7495586,24.2495859 L41.7495586,24.2495859 Z" id="Shape" fill-opacity="0.499433877" fill="#000000"></path>
                                <rect id="Rectangle-path" fill="#940030" x="26.8333242" y="16.3333242" width="6.99997266" height="16.3333242"></rect>
                                <rect id="Rectangle-path" fill="#FF6262" x="17.4999727" y="21" width="6.99997266" height="11.6666484"></rect>
                                <rect id="Rectangle-path" fill-opacity="0.690783514" fill="#F54D5E" x="20.9533242" y="21" width="3.54670313" height="11.6666484"></rect>
                                <g id="Group" transform="translate(5.003906, 8.367188)" fill="#FFAD9E">
                                    <rect id="Rectangle-path" x="3.16279687" y="17.2994883" width="6.99997266" height="6.99997266"></rect>
                                    <path d="M20.7334805,0.046921875 L16.0668047,0.046921875 C15.6372891,0.046921875 15.2890664,0.395226562 15.2890664,0.824660156 C15.2890664,1.25409375 15.6373711,1.60239844 16.0668047,1.60239844 L18.9266602,1.60239844 L12.4961484,8.03274609 L8.37941016,3.91617187 C8.07597656,3.61241016 7.58313281,3.61241016 7.27961719,3.91617187 L0.279644531,10.9161445 C-0.0241171875,11.2197422 -0.0241171875,11.7123398 0.279644531,12.0159375 C0.431402344,12.1677773 0.630492188,12.2437383 0.829582031,12.2437383 C1.02867188,12.2437383 1.22767969,12.1677773 1.37951953,12.0159375 L7.82955469,5.56606641 L11.946293,9.68264062 C12.2498086,9.98640234 12.7425703,9.98640234 13.0460859,9.68264062 L19.9557422,2.77290234 L19.9557422,5.49133594 C19.9557422,5.92085156 20.3040469,6.26907422 20.7334805,6.26907422 C21.1629141,6.26907422 21.5113008,5.92076953 21.5113008,5.49133594 L21.5113008,0.824660156 C21.5112188,0.395226562 21.1629141,0.046921875 20.7334805,0.046921875 L20.7334805,0.046921875 Z" id="Shape"></path>
                                </g>
                                <path d="M25.7373867,8.41410937 L21.0707109,8.41410937 C20.6411953,8.41410937 20.2929727,8.76241406 20.2929727,9.19184766 C20.2929727,9.62128125 20.6412773,9.96958594 21.0707109,9.96958594 L23.9305664,9.96958594 L17.5000547,16.3999336 L17.4883242,16.3882031 L17.4883242,18.2764805 C17.6912695,18.2795977 17.8951992,18.2046211 18.0499922,18.0498281 L24.9596484,11.1400898 L24.9596484,13.8585234 C24.9596484,14.2880391 25.3079531,14.6362617 25.7373867,14.6362617 C26.1668203,14.6362617 26.515207,14.287957 26.515207,13.8585234 L26.515207,9.19184766 C26.515125,8.76241406 26.1668203,8.41410937 25.7373867,8.41410937 L25.7373867,8.41410937 Z" id="Shape" fill="#FF6262"></path>
                            </g>
                        </g>
                    </g>
                </g>
            </g>
        </g>
    </g>
</svg>