<?xml version="1.0" encoding="UTF-8" standalone="no"?>
<svg width="169px" height="28px" viewBox="0 0 169 28" version="1.1" xmlns="http://www.w3.org/2000/svg" xmlns:xlink="http://www.w3.org/1999/xlink">
    <!-- Generator: Sketch 39.1 (31720) - http://www.bohemiancoding.com/sketch -->
    <title>logo</title>
    <desc>Created with Sketch.</desc>
    <defs>
        <polygon id="path-1" points="0.261622245 7.60941176 7.52320305 7.60941176 7.52320305 0.331335529 0.261622245 0.331335529 0.261622245 7.60941176"></polygon>
    </defs>
    <g id="Welcome" stroke="none" stroke-width="1" fill="none" fill-rule="evenodd">
        <g id="Desktop-HD" transform="translate(-135.000000, -16.000000)">
            <g id="Navigation">
                <g id="logo" transform="translate(135.000000, 16.000000)">
                    <path d="M19.2110331,11.2895407 C19.2110331,13.7662231 17.2079257,15.7740207 14.7377519,15.7740207 C12.2664935,15.7740207 10.2633861,13.7662231 10.2633861,11.2895407 C10.2633861,8.81430776 12.2664935,6.80651012 14.7377519,6.80651012 C17.2079257,6.80651012 19.2110331,8.81430776 19.2110331,11.2895407" id="Fill-1" fill="#3A8761"></path>
                    <path d="M16.6739083,14.7546856 C16.6739083,15.8265256 15.8066542,16.6961727 14.7373181,16.6961727 C13.6676204,16.6961727 12.8007278,15.8265256 12.8007278,14.7546856 C12.8007278,13.6828456 13.6676204,12.8131986 14.7373181,12.8131986 C15.8066542,12.8131986 16.6739083,13.6828456 16.6739083,14.7546856" id="Fill-3" fill="#32744A"></path>
                    <path d="M13.5941984,10.1711384 C13.5941984,11.2429784 12.7273058,12.1126254 11.6576081,12.1126254 C10.5879104,12.1126254 9.72101789,11.2429784 9.72101789,10.1711384 C9.72101789,9.09929835 10.5879104,8.22965129 11.6576081,8.22965129 C12.7273058,8.22965129 13.5941984,9.09929835 13.5941984,10.1711384" id="Fill-5" fill="#32744A"></path>
                    <path d="M14.7378603,25.2039661 C13.7509476,25.2039661 12.9520183,24.4017167 12.9520183,23.4132179 L12.9520183,14.8384979 C12.9520183,13.8503614 13.7509476,13.0484744 14.7378603,13.0484744 C15.7244115,13.0484744 16.5237024,13.8503614 16.5237024,14.8384979 L16.5237024,23.4132179 C16.5237024,24.4017167 15.7244115,25.2039661 14.7378603,25.2039661" id="Fill-7" fill="#FEFEFE"></path>
                    <g id="Group-11" transform="translate(10.845195, 19.519446)">
                        <mask id="mask-2" fill="white">
                            <use xlink:href="#path-1"></use>
                        </mask>
                        <g id="Clip-10"></g>
                        <path d="M7.52320305,3.97117082 C7.52320305,5.98186729 5.89714687,7.60955671 3.8925934,7.60955671 C1.88731692,7.60955671 0.261622245,5.98186729 0.261622245,3.97117082 C0.261622245,1.96192376 1.88731692,0.331335529 3.8925934,0.331335529 C5.89714687,0.331335529 7.52320305,1.96192376 7.52320305,3.97117082" id="Fill-9" fill="#98C93C" mask="url(#mask-2)"></path>
                    </g>
                    <path d="M19.4255511,9.48179812 C19.4255511,10.5540005 18.558297,11.4229228 17.4889608,11.4229228 C16.4192631,11.4229228 15.5523706,10.5540005 15.5523706,9.48179812 C15.5523706,8.40995812 16.4192631,7.54067341 17.4889608,7.54067341 C18.558297,7.54067341 19.4255511,8.40995812 19.4255511,9.48179812" id="Fill-12" fill="#32744A"></path>
                    <path d="M25.2755214,2.49146635 C25.9359937,3.22631812 25.8777912,4.35830871 25.144656,5.02032753 L18.790095,10.7618099 C18.0580443,11.4234664 16.9286981,11.3647652 16.2678642,10.6306381 C15.6077534,9.89614871 15.6659559,8.76452047 16.3987296,8.10250165 L22.7532906,2.36065694 C23.4857027,1.69863812 24.615049,1.75733929 25.2755214,2.49146635" id="Fill-14" fill="#FEFEFE"></path>
                    <path d="M21.5753217,0.936428706 C23.0643669,-0.409712471 25.3595716,-0.290136 26.7022067,1.20275812 C28.0452033,2.69528988 27.9259062,4.99659341 26.4368609,6.34237224 C24.9474542,7.68778871 22.6515265,7.56893694 21.3096144,6.07604282 C19.9666178,4.58314871 20.0855535,2.28184518 21.5753217,0.936428706" id="Fill-16" fill="#479CA9"></path>
                    <path d="M2.05042864,6.16952988 C2.42567238,5.25458871 3.4689801,4.81831576 4.38106096,5.19443812 L12.294438,8.45416518 C13.2065188,8.82956282 13.6421341,9.87603812 13.2668904,10.7906169 C12.8920082,11.7048334 11.848339,12.1418311 10.9358966,11.7657087 L3.02360411,8.50598165 C2.11116173,8.12985929 1.67554642,7.08447106 2.05042864,6.16952988" id="Fill-18" fill="#FEFEFE"></path>
                    <g id="Group-22" transform="translate(0.000000, 2.851210)" fill="#5ABE86">
                        <path d="M2.2511732,7.33550918 C0.397006424,6.57166918 -0.488684469,4.44538212 0.273371205,2.58687388 C1.03614989,0.727278588 3.15674695,-0.160123765 5.01163673,0.603716235 C6.86616501,1.36791859 7.75149439,3.49420565 6.98907721,5.35307624 C6.22738305,7.21194682 4.10606298,8.09971153 2.2511732,7.33550918" id="Fill-20"></path>
                    </g>
                    <path d="M32.7224465,22.0202969 L32.7224465,12.5309981 C32.3247894,12.5509275 31.7087823,12.4712099 30.8744254,12.2914828 C30.0397069,12.1121181 29.6221669,11.0841228 29.6221669,9.20822165 L32.7224465,9.20822165 L32.7488365,5.55063106 L36.4788604,5.58614165 L36.4788604,9.08212282 C37.7108745,9.20169929 38.6197019,9.41113929 39.2064269,9.70971812 C39.7920674,10.0082969 40.0856107,10.9152664 40.0856107,12.4288146 L36.5681525,12.4288146 L36.5681525,19.3609887 C36.428611,19.9588711 36.1704954,20.5516805 35.7930826,21.1386922 C35.4153084,21.7267911 34.6304778,22.0202969 33.4378679,22.0202969 L32.7224465,22.0202969 Z" id="Fill-23" fill="#FFFFFF"></path>
                    <path d="M41.5761019,21.9906202 L41.5761019,8.91185318 C41.5761019,8.91185318 43.6591023,8.90279435 45.4214464,8.90279435 L45.4214464,10.8453685 C45.6777545,10.3670626 45.9984108,9.88911906 46.3837767,9.41117553 C46.7684196,8.93286965 47.3363463,8.69371671 48.0868337,8.69371671 C48.6196943,8.69371671 49.2114804,8.89301082 49.8632766,9.29123671 L49.8632766,13.2354485 C49.604438,12.9962955 49.3362002,12.8223661 49.0582017,12.7125732 C48.7798417,12.6035049 48.491721,12.5480649 48.1938397,12.5480649 C47.5178225,12.5480649 46.8866322,12.7933779 46.3009917,13.2825544 C45.7146282,13.7724555 45.4214464,14.1670579 45.4214464,14.4667238 L45.4214464,19.2925402 C45.341915,19.6523567 45.1181425,20.1919002 44.7508519,20.9115332 C44.3828383,21.6308038 43.3243473,21.9906202 41.5761019,21.9906202" id="Fill-25" fill="#FFFFFF"></path>
                    <path d="M57.7031593,17.5532824 C57.7031593,17.1507082 57.545904,16.8039365 57.2328394,16.51188 C56.9194133,16.2201859 56.540193,16.0741576 56.09554,16.0741576 C55.5496652,16.1350329 55.0995896,16.2709153 54.7456748,16.4818047 C54.3917599,16.6934188 54.2149832,17.0202612 54.2149832,17.4626941 C54.2149832,17.9054894 54.3870603,18.2826988 54.730853,18.5946847 C55.0746457,18.9063082 55.5290593,19.06212 56.09554,19.06212 C56.5604373,19.06212 56.9447187,18.9316729 57.2483842,18.6700541 C57.5513266,18.4084353 57.7031593,18.0362988 57.7031593,17.5532824 L57.7031593,17.5532824 Z M61.5188603,22.1098706 C60.246719,22.1098706 59.4022398,21.9312306 58.9850613,21.5735882 C58.5675214,21.2159459 58.2591563,20.8365624 58.0610508,20.4368871 C57.822818,20.8017765 57.489509,21.1721012 57.0622083,21.5471365 C56.6349077,21.9225341 55.9039416,22.1098706 54.8711175,22.1098706 C53.5194448,22.1098706 52.4266107,21.7105576 51.5918922,20.9104824 C50.7571737,20.1114941 50.3399952,18.9323976 50.3399952,17.3724682 C50.3399952,16.2535224 50.7871787,15.3193765 51.6815458,14.5693059 C52.5755513,13.8195976 53.6087369,13.4449247 54.7814639,13.4449247 C55.3775881,13.4449247 55.9144252,13.5246424 56.3916138,13.6837153 C56.8684409,13.8435129 57.3055022,14.0721576 57.7031593,14.3707365 L57.7031593,13.3249859 C57.7031593,11.9310141 56.7390215,11.2334847 54.811469,11.2334847 C54.2149832,11.2334847 53.6936909,11.3284212 53.2465074,11.5175694 C52.7993238,11.70708 52.2476649,12.0701576 51.5918922,12.6078894 C51.5918922,11.2737059 52.0141318,10.2525953 52.8589724,9.54528235 C53.7034516,8.83869412 54.9206439,8.48467529 56.5109109,8.48467529 C58.1601035,8.48467529 59.4073009,9.04632235 60.2517801,10.1688918 C61.0962592,11.2918235 61.5188603,12.3647506 61.5188603,13.3873106 L61.5188603,22.1098706 Z" id="Fill-27" fill="#FFFFFF"></path>
                    <path d="M63.7544887,21.9906202 L63.6973707,8.90279435 L67.5405462,8.90279435 L67.5701897,10.4569261 C68.0108661,9.85904376 68.3965935,9.45103435 68.7277335,9.23144847 C69.0581504,9.01258729 69.7656186,8.90279435 70.847969,8.90279435 C72.130594,8.90279435 73.0578582,9.27166965 73.6290384,10.0083332 C74.1998572,10.7457214 74.4861703,11.7117544 74.4861703,12.9067944 L74.4861703,15.432032 L74.4861703,18.3750626 C74.4861703,19.0526626 74.4265217,19.5403896 74.3072246,19.8389685 C74.1879274,20.1379096 73.8900461,20.5712838 73.413219,21.1387285 C72.9360305,21.7068979 72.0514241,21.9906202 70.7601229,21.9906202 L70.7601229,13.7434673 C70.7601229,13.2655238 70.6390183,12.8520791 70.398978,12.5034955 C70.1585761,12.1552744 69.8267132,11.9806202 69.4059196,11.9806202 C68.924393,11.9806202 68.4974538,12.1552744 68.1272712,12.5034955 C67.7556425,12.8520791 67.5701897,13.2655238 67.5701897,13.7434673 L67.5701897,19.3012367 C67.5701897,19.9589073 67.1873543,20.5712838 66.4224066,21.1387285 C65.6570974,21.7068979 64.7677914,21.9906202 63.7544887,21.9906202" id="Fill-29" fill="#FFFFFF"></path>
                    <path d="M75.738248,17.5382085 C76.3538936,18.1165238 77.104381,18.564392 77.9886259,18.8832626 C78.8728708,19.2021332 79.6927675,19.3612061 80.448316,19.3612061 C81.5606715,19.3612061 82.1770401,19.1021238 82.2966987,18.5843214 C82.3758686,18.3053096 81.3470212,17.6577849 79.2108793,16.6421096 C77.0747375,15.626072 76.0061243,14.4505991 76.0061243,13.1160532 C76.0061243,12.8968296 76.0556507,12.4688908 76.1554265,11.8311496 C76.2548408,11.1937708 76.7367289,10.5118226 77.6010909,9.78421788 C78.466176,9.05733788 79.4838167,8.69389788 80.6565438,8.69389788 C82.4456394,8.69389788 83.707297,9.06241082 84.4426012,9.79943671 C85.1779054,10.5364626 85.545919,11.622072 85.545919,13.0562649 C85.0484861,12.5779591 84.4227184,12.1800955 83.6675313,11.8612249 C82.9123442,11.5423544 82.2066836,11.3829191 81.5512723,11.3829191 C81.0542009,11.3829191 80.666666,11.4778555 80.3886675,11.6670038 C80.1095845,11.856152 79.971489,12.1598038 79.971489,12.5779591 C81.5527184,13.1758414 82.9672932,13.9183026 84.2130446,14.8042555 C85.4591575,15.6909332 86.0823946,16.7515402 86.0823946,17.9864391 L86.0823946,18.4053191 C85.9630975,19.580792 85.4215608,20.5167496 84.457423,21.2139167 C83.4936467,21.9114461 82.3661079,22.2593049 81.0740838,22.2593049 C79.6631239,22.2593049 78.4607534,21.8962273 77.466972,21.1689849 C76.4728292,20.4417426 75.8969494,19.2314838 75.738248,17.5382085" id="Fill-31" fill="#FFFFFF"></path>
                    <path d="M96.7841796,17.3294207 C96.8235838,17.6877878 96.8438282,17.9472325 96.8438282,18.1063054 C96.8438282,19.4408513 96.3814614,20.4666725 95.4574508,21.1834066 C94.5334402,21.9012278 93.4051785,22.2592325 92.0741116,22.2592325 C90.563376,22.2592325 89.3910105,21.6964984 88.556292,20.5713925 C87.721935,19.4459242 87.304395,17.7675054 87.304395,15.5368607 C87.304395,12.9866207 87.8607535,11.2089172 88.973832,10.2026631 C90.0865489,9.19713365 91.4179773,8.69382541 92.9688402,8.69382541 C93.9224943,8.69382541 94.796617,9.09241365 95.5915697,9.88886541 C96.3865225,10.6856795 96.7841796,11.6419289 96.7841796,12.7576136 L96.7841796,13.0859054 C96.0687583,12.4883854 95.4621504,12.0655195 94.9654405,11.8162207 C94.4687306,11.5672842 93.8820055,11.4426348 93.2070729,11.4426348 C91.736103,11.4426348 91.0007988,12.8271854 91.0007988,15.5959242 C91.0007988,16.8315478 91.1996274,17.7225736 91.5972845,18.2700889 C91.9945802,18.8183289 92.5606993,19.0919054 93.296365,19.0919054 C94.0515521,19.0919054 94.7272077,18.9476889 95.3233319,18.6588936 C95.9198176,18.3700984 96.4064053,17.9265784 96.7841796,17.3294207" id="Fill-33" fill="#FFFFFF"></path>
                    <path d="M105.219897,17.5532824 C105.219897,17.1507082 105.063365,16.8039365 104.749577,16.51188 C104.436151,16.2201859 104.056931,16.0741576 103.61264,16.0741576 C103.067126,16.1350329 102.617051,16.2709153 102.262774,16.4818047 C101.908859,16.6934188 101.732083,17.0202612 101.732083,17.4626941 C101.732083,17.9054894 101.904521,18.2826988 102.247953,18.5946847 C102.591745,18.9063082 103.046159,19.06212 103.61264,19.06212 C104.077175,19.06212 104.461457,18.9316729 104.765122,18.6700541 C105.068065,18.4084353 105.219897,18.0362988 105.219897,17.5532824 L105.219897,17.5532824 Z M109.03596,22.1098706 C107.763457,22.1098706 106.918978,21.9312306 106.502161,21.5735882 C106.084259,21.2159459 105.776617,20.8365624 105.577789,20.4368871 C105.339556,20.8017765 105.006247,21.1721012 104.578946,21.5471365 C104.151646,21.9225341 103.421041,22.1098706 102.388217,22.1098706 C101.036183,22.1098706 99.9437102,21.7105576 99.1089917,20.9104824 C98.2739117,20.1114941 97.8567332,18.9323976 97.8567332,17.3724682 C97.8567332,16.2535224 98.3042782,15.3193765 99.1982838,14.5693059 C100.092651,13.8195976 101.125475,13.4449247 102.298925,13.4449247 C102.894688,13.4449247 103.431525,13.5246424 103.908352,13.6837153 C104.385179,13.8435129 104.82224,14.0721576 105.219897,14.3707365 L105.219897,13.3249859 C105.219897,11.9310141 104.256121,11.2334847 102.328568,11.2334847 C101.732083,11.2334847 101.21079,11.3284212 100.763245,11.5175694 C100.316062,11.70708 99.7647645,12.0701576 99.1089917,12.6078894 C99.1089917,11.2737059 99.5308698,10.2525953 100.37571,9.54528235 C101.22019,8.83869412 102.437382,8.48467529 104.027649,8.48467529 C105.676842,8.48467529 106.924039,9.04632235 107.76888,10.1688918 C108.613359,11.2918235 109.03596,12.3647506 109.03596,13.3873106 L109.03596,22.1098706 Z" id="Fill-35" fill="#FFFFFF"></path>
                    <path d="M114.490948,15.3726786 C114.490948,16.6021421 114.625429,17.5047633 114.893666,18.0798174 C115.162266,18.6548715 115.673436,18.9425798 116.428623,18.9425798 C117.144406,18.9425798 117.606411,18.6603068 117.815,18.0950362 C118.023951,17.530128 118.127703,16.6220715 118.127703,15.3726786 C118.127703,14.1624198 118.028289,13.2895115 117.830184,12.7543162 C117.630993,12.2187586 117.18381,11.9506174 116.488271,11.9506174 C115.752967,11.9506174 115.236374,12.2433986 114.938132,12.8285986 C114.639889,13.4137986 114.490948,14.2617045 114.490948,15.3726786 M118.754194,20.2872715 C118.535121,20.6989045 118.197113,21.1058268 117.740168,21.5073139 C117.283224,21.9091633 116.458628,22.1099068 115.266018,22.1099068 C114.193428,22.1099068 113.179403,21.6232668 112.225387,20.6488998 C111.271733,19.6752574 110.794906,18.6218974 110.794906,17.4891821 L110.794906,13.3152386 C110.794906,12.281808 111.216784,11.2831633 112.061986,10.3189421 C112.905742,9.35544565 113.815654,8.87315388 114.789191,8.87315388 C115.584144,8.87315388 116.224733,8.98765741 116.712405,9.21666447 C117.198993,9.44567153 117.720286,9.80983624 118.277006,10.3073468 L118.277006,0.0581938824 L122.033058,0.0581938824 L122.033058,22.1099068 C120.920341,22.1099068 120.155393,21.9113374 119.737492,21.5127492 C119.320675,21.1137986 118.992788,20.7054268 118.754194,20.2872715" id="Fill-37" fill="#FFFFFF"></path>
                    <path d="M131.184233,14.4307059 C131.204116,14.3299718 131.214238,14.1687247 131.214238,13.9469647 C131.214238,13.3429224 131.079758,12.8392518 130.811881,12.4355906 C130.543282,12.0330165 130.091038,11.8311859 129.455509,11.8311859 C128.799375,11.8311859 128.356891,12.0783106 128.12878,12.5714729 C127.899947,13.06536 127.785711,13.6849835 127.785711,14.4307059 L131.184233,14.4307059 Z M134.672048,17.5980329 C134.711813,17.8752329 134.731696,18.07344 134.731696,18.1919294 C134.731696,19.2213741 134.26463,20.16168 133.330859,21.0132094 C132.396364,21.8636518 131.352695,22.2894165 130.200212,22.2894165 C127.994661,22.2894165 126.389573,21.6469647 125.386392,20.3616988 C124.382489,19.07752 123.881079,17.3190212 123.881079,15.0883765 C123.881079,13.1758776 124.32284,11.5971059 125.207085,10.3520612 C126.09133,9.10737882 127.458186,8.48485647 129.306207,8.48485647 C131.51212,8.48485647 133.027555,9.23927529 133.852151,10.7488376 C134.676747,12.2587624 135.089588,14.1832188 135.089588,16.5222071 L127.816077,16.5222071 C127.91513,17.3106871 128.103475,17.8668988 128.382196,18.1915671 C128.660556,18.5162353 129.087134,18.7532141 129.66446,18.9010541 C130.24034,19.0481694 130.73705,19.1220894 131.15459,19.1220894 C131.870011,19.1220894 132.535544,19.0050494 133.151913,18.7702447 C133.76792,18.5361647 134.274391,18.1451859 134.672048,17.5980329 L134.672048,17.5980329 Z" id="Fill-39" fill="#FFFFFF"></path>
                    <path d="M136.668829,11.6043167 L136.668829,9.05842494 L140.48453,9.022552 L140.48453,10.5462461 C141.140303,9.31134729 142.213254,8.69389788 143.704107,8.69389788 C145.035173,8.69389788 146.048476,9.28163435 146.744376,10.4567449 C147.678509,9.28163435 148.850513,8.69389788 150.262557,8.69389788 C150.480546,8.69389788 150.898086,8.72433553 151.514454,8.78376141 C152.1301,8.843912 152.830338,9.19793082 153.61553,9.84690494 C154.401084,10.4958791 154.793318,11.3292908 154.793318,12.3475026 L154.793318,19.3550461 C154.773435,19.7145002 154.633894,20.2533191 154.37614,20.9722273 C154.117301,21.6911355 153.014345,22.0505896 151.066909,22.0505896 L151.066909,14.2882649 C151.066909,13.7088626 150.93749,13.2041049 150.679736,12.7747167 C150.421259,12.3453285 150.043484,12.0905944 149.546413,12.0105144 C148.970172,11.9507261 148.483584,12.1692249 148.085927,12.6660108 C147.687908,13.1627967 147.490164,13.7382132 147.490164,14.3937096 L147.490164,22.0505896 C146.376363,22.0505896 145.462474,21.8110744 144.747053,21.3331308 C144.031993,20.8551873 143.674102,20.1779496 143.674102,19.3014179 L143.674102,14.2513049 C143.674102,13.6342179 143.574326,13.1011967 143.37622,12.6529661 C143.17703,12.2047355 142.829622,11.9507261 142.332551,11.8909379 C141.776192,11.8115826 141.329009,12.0221096 140.991362,12.5225191 C140.652992,13.0232908 140.48453,13.6045049 140.48453,14.2654367 L140.48453,19.3449002 C140.42452,19.7058038 140.22063,20.2471591 139.873584,20.9682414 C139.525092,21.6896861 138.457563,22.0505896 136.668829,22.0505896 L136.668829,11.6043167 Z" id="Fill-41" fill="#FFFFFF"></path>
                    <path d="M157.475805,26.6221793 L159.831019,21.2709511 L156.194264,13.3194781 C156.173658,13.2201934 156.153775,13.0756146 156.134616,12.8864664 C156.114733,12.6969558 156.104249,12.5422311 156.104249,12.4226546 C156.104249,11.7251252 156.253551,11.0529605 156.551794,10.4054358 C156.849675,9.75791106 157.426278,9.18503106 158.28088,8.68607106 L161.88763,16.5223158 C162.74187,14.8294028 163.591771,13.126344 164.436612,11.4127769 C165.281091,9.69993459 165.703331,8.79368988 165.703331,8.69368047 C166.219924,9.11219812 168.500668,10.7924287 168.500668,10.7924287 L162.126224,25.187624 C161.788216,25.6061416 161.375737,26.0242969 160.889149,26.4424522 C160.4022,26.8613322 159.781132,27.0704099 159.025944,27.0704099 C158.489107,27.0704099 157.972515,26.9211205 157.475805,26.6221793" id="Fill-43" fill="#FFFFFF"></path>
                </g>
            </g>
        </g>
    </g>
</svg>