<?xml version="1.0" encoding="UTF-8" standalone="no"?>
<svg width="42px" height="42px" viewBox="0 0 42 42" version="1.1" xmlns="http://www.w3.org/2000/svg" xmlns:xlink="http://www.w3.org/1999/xlink">
    <!-- Generator: Sketch 39.1 (31720) - http://www.bohemiancoding.com/sketch -->
    <title>moment</title>
    <desc>Created with Sketch.</desc>
    <defs></defs>
    <g id="Welcome" stroke="none" stroke-width="1" fill="none" fill-rule="evenodd">
        <g id="Desktop-HD" transform="translate(-735.000000, -1309.000000)">
            <g id="parent" transform="translate(179.000000, 919.000000)">
                <g id="text" transform="translate(555.000000, 35.000000)">
                    <g id="features" transform="translate(0.000000, 199.000000)">
                        <g id="f4" transform="translate(1.000000, 156.000000)">
                            <g id="moment">
                                <path d="M41.8620222,21.0688593 C41.8620222,32.6287111 32.490837,41.9998963 20.9309852,41.9998963 C9.37113333,41.9998963 -5.18518518e-05,32.6287111 -5.18518518e-05,21.0688593 C-5.18518518e-05,9.50900741 9.37113333,0.137822222 20.9309852,0.137822222 C32.490837,0.137822222 41.8620222,9.50900741 41.8620222,21.0688593" id="bg-c" fill="#FFDA44"></path>
                                <path d="M26.102107,41.356235 C35.1610415,39.0541607 41.8620222,30.8440264 41.8620222,21.0688593 C41.8620222,20.6829065 41.851576,20.2993935 41.8309509,19.9185875 L29.0203009,10.4796825 L11.8549327,31.6377559 L26.102107,41.356235 Z" id="Combined-Shape" fill-opacity="0.195623868" fill="#000000"></path>
                                <path d="M13.4316,31.4050593 C13.3271185,31.4050593 13.2231556,31.3796519 13.1290444,31.3301333 C12.9771185,31.249763 12.8630444,31.1123556 12.8122296,30.9482444 L8.65500741,17.4895778 C8.54948889,17.1473556 8.74108148,16.7846519 9.08304444,16.6788741 L28.2391926,10.7615407 C28.3027111,10.7420963 28.3672667,10.732763 28.4307852,10.732763 C28.7074148,10.732763 28.9638222,10.9113926 29.049637,11.1895778 L33.2068593,24.6479852 C33.312637,24.9899481 33.1210444,25.3529111 32.7788222,25.4584296 L13.6229333,31.3762815 C13.5604519,31.3954667 13.4958963,31.4050593 13.4316,31.4050593" id="Fill-4" fill="#487DA9"></path>
                                <path d="M28.4307852,10.0842778 C28.3040074,10.0842778 28.1751556,10.1029444 28.0478593,10.1423519 L8.89171111,16.0596852 C8.20778519,16.2709815 7.8246,16.9969074 8.03563704,17.6808333 L12.1931185,31.1395 C12.2944889,31.4679815 12.5223778,31.7427963 12.8264889,31.9032778 C13.0147111,32.0025741 13.222637,32.0531296 13.4316,32.0531296 C13.5601926,32.0531296 13.6890444,32.0342037 13.8142667,31.9955741 L32.9701556,26.0777222 C33.6543407,25.8666852 34.0375259,25.1407593 33.8262296,24.4568333 L29.6690074,10.9984259 C29.4971185,10.4417963 28.9843037,10.0842778 28.4307852,10.0842778 M28.4305259,11.3808333 L32.5877481,24.8392407 L13.4316,30.7568333 L9.27437778,17.2981667 L28.4305259,11.3808333" id="Fill-6" fill="#E5E5E4"></path>
                                <path d="M12.5383741,31.4050593 C12.180337,31.4050593 11.8902259,31.1149481 11.8902259,30.7569111 L11.8902259,16.670837 C11.8902259,16.3128 12.180337,16.0226889 12.5383741,16.0226889 L32.5876704,16.0226889 C32.9457074,16.0226889 33.2358185,16.3128 33.2358185,16.670837 L33.2358185,30.7569111 C33.2358185,31.1149481 32.9457074,31.4050593 32.5876704,31.4050593 L12.5383741,31.4050593 Z" id="Fill-8" fill="#A5DDF2"></path>
                                <path d="M32.5876704,15.3745407 L12.5383741,15.3745407 C11.8225593,15.3745407 11.2420778,15.9550222 11.2420778,16.670837 L11.2420778,30.7569111 C11.2420778,31.4729852 11.8225593,32.0532074 12.5383741,32.0532074 L32.5876704,32.0532074 C33.3034852,32.0532074 33.8839667,31.4729852 33.8839667,30.7569111 L33.8839667,16.670837 C33.8839667,15.9550222 33.3034852,15.3745407 32.5876704,15.3745407 L32.5876704,15.3745407 Z M12.5383741,30.7569111 L32.5876704,30.7569111 L32.5876704,16.670837 L12.5383741,16.670837 L12.5383741,30.7569111 Z" id="Fill-10" fill="#FEFEFE"></path>
                                <path d="M32.5876704,24.9572556 C31.1980407,24.4898111 29.6920037,24.2321074 28.1177815,24.2321074 C24.5884852,24.2321074 21.3995963,25.5188111 19.1095593,27.5902926 C17.1404852,26.5781444 14.8501889,26.1967741 12.5383741,26.4570704 L12.5383741,30.7568852 L32.5876704,30.7568852 L32.5876704,24.9572556 Z" id="Fill-12" fill="#49BEA9"></path>
                                <path d="M21.3225444,21.2131889 C21.1306926,21.2131889 20.9512852,21.2619296 20.7902852,21.3420407 C20.6876185,20.6306333 20.0773222,20.0838556 19.3381741,20.0838556 C18.5728407,20.0838556 17.9446556,20.6690037 17.8756926,21.4164481 C17.3185444,21.476337 16.8832481,21.9424852 16.8832481,22.5154481 C16.8832481,23.1293741 17.3807667,23.6271519 17.9946926,23.6271519 L20.8846556,23.6271519 C20.9595815,23.6271519 21.0329519,23.6193741 21.1034704,23.6053741 C21.1747667,23.6178185 21.2476185,23.6271519 21.3225444,23.6271519 C21.9888407,23.6271519 22.5293963,23.0868556 22.5293963,22.4200407 C22.5293963,21.7534852 21.9888407,21.2131889 21.3225444,21.2131889" id="Fill-14" fill="#FEFEFE"></path>
                                <path d="M31.3399852,22.4530185 C31.3454296,22.3837963 31.3503556,22.3148333 31.3503556,22.2440556 C31.3503556,20.8124259 30.1896519,19.6517222 28.757763,19.6517222 C27.7969481,19.6517222 26.9598,20.1756852 26.5123185,20.9524259 C25.7405037,20.9967593 25.1278741,21.634537 25.1278741,22.4172407 L25.084837,22.4172407 C24.3690222,22.4172407 23.7885407,22.9977222 23.7885407,23.713537 C23.7885407,24.4290926 24.3690222,25.0098333 25.084837,25.0098333 L31.0478,25.0098333 C31.7638741,25.0098333 32.3440963,24.4290926 32.3440963,23.713537 C32.3440963,23.0983148 31.914763,22.5860185 31.3399852,22.4530185" id="Fill-16" fill="#FEFEFE"></path>
                                <path d="M12.5383741,21.0244222 C12.971337,21.2878296 13.4779296,21.4423481 14.0218556,21.4423481 C15.6020407,21.4423481 16.8833,20.1613481 16.8833,18.5809037 C16.8833,17.8459037 16.6038185,17.1775333 16.1480407,16.6709407 L12.5383741,16.6709407 L12.5383741,21.0244222 Z" id="Fill-18" fill="#F2CC4E"></path>
                            </g>
                        </g>
                    </g>
                </g>
            </g>
        </g>
    </g>
</svg>